<?xml version="1.0" standalone="no"?>
<!DOCTYPE svg PUBLIC "-//W3C//DTD SVG 20010904//EN"
 "http://www.w3.org/TR/2001/REC-SVG-20010904/DTD/svg10.dtd">
<svg version="1.0" xmlns="http://www.w3.org/2000/svg"
 width="1024.000000pt" height="1024.000000pt" viewBox="0 0 1024.000000 1024.000000"
 preserveAspectRatio="xMidYMid meet">

<g transform="translate(0.000000,1024.000000) scale(0.100000,-0.100000)"
fill="#000000" stroke="none">
<path d="M0 5120 l0 -5120 5120 0 5120 0 0 5120 0 5120 -5120 0 -5120 0 0
-5120z m5517 3275 c316 -16 727 -110 1063 -242 461 -182 927 -505 1249 -867
301 -339 440 -548 605 -913 67 -146 168 -460 161 -495 -5 -21 -3 -28 9 -28 9
0 16 -6 16 -14 0 -8 3 -23 6 -33 5 -15 4 -15 -5 -3 -8 12 -12 9 -22 -19 -10
-28 -13 -31 -21 -17 -9 16 -11 16 -25 -1 -8 -10 -11 -11 -7 -3 6 13 5 13 -7 1
-11 -10 -11 -15 -1 -18 17 -6 15 -23 -3 -23 -8 0 -18 15 -23 33 -5 17 -14 31
-21 30 -15 -4 -14 14 2 20 7 3 5 6 -5 6 -10 1 -18 -3 -18 -9 0 -5 -7 -10 -15
-10 -8 0 -15 -9 -15 -20 0 -11 -5 -20 -11 -20 -5 0 -8 -4 -5 -9 3 -5 -1 -11
-8 -14 -10 -4 -14 1 -13 14 1 10 7 19 14 19 7 0 13 9 13 20 0 11 5 20 10 20 6
0 10 5 10 10 0 20 47 63 60 55 9 -6 9 -9 0 -15 -7 -4 -11 -13 -9 -19 3 -8 10
-8 24 3 16 12 17 16 6 30 -15 18 -51 22 -51 5 0 -6 -7 -3 -16 5 -22 22 -31 20
-10 -3 15 -16 15 -19 1 -24 -8 -4 -15 -1 -15 6 0 24 -20 -18 -20 -43 0 -14 -9
-31 -20 -38 -19 -11 -22 -9 -41 35 -11 25 -18 52 -15 59 3 7 1 14 -5 16 -5 2
-18 32 -28 68 -46 156 -182 451 -288 625 -262 431 -655 819 -1108 1095 -187
114 -508 255 -737 324 -129 39 -351 87 -498 108 -150 21 -664 18 -810 -5 -710
-111 -1363 -436 -1841 -917 -195 -197 -322 -357 -470 -595 -67 -108 -205 -376
-223 -433 -4 -12 -12 -20 -17 -17 -5 3 -6 0 -3 -8 3 -8 -9 -49 -26 -91 -16
-42 -30 -83 -30 -91 0 -8 -7 -15 -16 -15 -11 0 -14 -6 -9 -20 3 -11 2 -20 -3
-20 -14 0 -22 -38 -9 -43 6 -2 7 -9 3 -16 -5 -7 -14 -10 -21 -8 -9 4 -12 -6
-10 -34 1 -21 0 -39 -2 -39 -3 0 -17 10 -31 21 l-27 22 27 -5 c18 -3 25 -1 22
7 -7 18 -84 3 -84 -16 0 -5 -7 -9 -16 -9 -13 0 -14 3 -5 14 9 11 9 15 0 18
-17 6 -2 28 19 28 15 0 15 -2 2 -10 -13 -9 -13 -10 0 -10 8 0 22 5 30 10 12 7
8 11 -17 16 -24 5 -30 10 -25 23 5 14 3 14 -21 -2 -15 -10 -33 -15 -40 -11 -9
5 -9 4 0 -6 10 -11 15 -11 29 1 16 13 17 12 11 -11 -4 -14 -7 -35 -7 -47 0
-14 -9 -24 -29 -31 -16 -6 -32 -7 -36 -4 -3 4 -10 0 -15 -8 -5 -8 -12 -12 -15
-9 -8 8 5 40 14 34 4 -2 8 9 8 26 0 16 -3 25 -6 20 -4 -6 -12 -6 -21 -1 -18
11 -10 19 23 22 16 1 28 10 31 21 4 18 4 18 -15 1 -18 -16 -19 -16 -20 2 0 18
-1 18 -9 -1 -34 -79 32 166 85 315 30 84 26 76 90 220 172 390 401 718 721
1035 177 176 387 336 620 475 512 305 1035 466 1623 499 132 8 197 7 408 -4z
m-41 -465 c416 -28 768 -125 1145 -315 196 -98 346 -192 489 -304 48 -38 122
-108 104 -97 -15 7 -38 -19 -31 -36 4 -8 6 -7 6 5 2 28 52 22 83 -12 15 -15
25 -31 21 -34 -3 -4 -19 8 -36 26 -26 27 -32 29 -35 15 -2 -10 -12 -18 -23
-18 -10 0 -19 -5 -19 -11 0 -6 7 -9 15 -6 8 4 17 2 20 -3 4 -6 -1 -10 -10 -10
-14 0 -14 -3 1 -26 14 -20 15 -27 4 -37 -9 -8 -11 -9 -6 0 9 16 -4 43 -21 43
-8 0 -11 5 -7 12 5 8 2 9 -9 5 -12 -4 -17 -1 -18 11 0 14 -2 14 -8 -3 -7 -16
-3 -22 23 -32 17 -6 25 -12 17 -12 -7 -1 -11 -7 -7 -16 3 -8 4 -15 2 -15 -3 0
-13 -3 -23 -6 -15 -5 -15 -4 -3 5 10 7 11 11 3 11 -7 0 -13 5 -13 11 0 5 5 7
10 4 6 -3 10 -1 10 5 0 6 -8 10 -17 8 -10 -2 -18 -8 -18 -15 0 -6 -4 -15 -9
-20 -5 -5 -6 -2 -1 6 6 10 3 12 -12 7 -13 -4 -25 0 -34 11 -13 16 -12 17 4 4
13 -11 21 -11 29 -3 14 14 -13 27 -43 19 -13 -4 -24 1 -32 14 -6 10 -15 19
-20 19 -4 0 -31 17 -60 38 -349 254 -758 426 -1207 509 -186 34 -542 43 -739
19 -466 -57 -856 -199 -1246 -454 -221 -144 -353 -254 -543 -456 -29 -31 -58
-55 -65 -53 -7 1 -11 -7 -10 -18 1 -11 0 -14 -3 -7 -8 17 -27 15 -20 -3 3 -8
2 -15 -2 -15 -5 0 -17 -7 -28 -15 -19 -15 -19 -15 1 -8 11 3 17 3 14 -1 -7 -7
-69 -27 -69 -21 0 2 8 11 17 21 25 25 24 40 -3 53 -23 10 -24 9 -14 -8 5 -11
15 -22 22 -24 8 -4 7 -6 -4 -6 -9 -1 -25 -17 -37 -36 -20 -34 -22 -35 -48 -22
-16 8 -34 12 -42 9 -8 -3 -11 0 -7 6 3 6 -3 13 -14 17 -20 7 -28 25 -10 25 6
0 10 -4 10 -9 0 -5 10 -7 22 -3 14 3 19 1 14 -6 -3 -6 2 -16 13 -22 22 -11 25
-8 35 33 5 20 11 27 21 23 8 -3 15 -2 15 3 0 5 -9 11 -19 14 -21 5 -31 -10
-31 -44 0 -10 -4 -19 -9 -19 -4 0 -7 11 -6 23 2 20 -1 23 -19 20 -13 -3 -28 2
-36 12 -12 14 -12 16 1 15 27 -4 38 0 33 13 -3 8 1 14 9 14 8 0 14 -6 13 -13
-1 -14 17 -20 21 -7 2 5 -3 17 -10 27 -11 15 -17 17 -35 7 -33 -17 -27 -7 27
53 28 30 57 66 67 80 20 32 37 34 29 4 -5 -20 -4 -21 5 -5 6 9 8 22 4 28 -7
13 55 81 67 73 5 -3 6 1 3 9 -3 9 30 46 93 104 435 395 944 656 1488 762 278
55 495 69 761 51z m114 -410 c591 -74 1172 -363 1583 -789 95 -98 309 -369
325 -410 3 -8 25 -46 48 -84 63 -102 132 -265 129 -306 -2 -29 0 -32 10 -17
12 15 13 15 18 -4 3 -12 1 -18 -5 -14 -6 4 -8 1 -6 -7 3 -8 11 -13 18 -11 7 1
9 -4 6 -16 -4 -11 0 -24 9 -32 10 -8 13 -21 8 -38 -4 -16 -2 -23 4 -19 17 11
23 -20 7 -33 -8 -7 -14 -17 -14 -23 0 -7 4 -7 12 1 15 15 28 16 28 2 0 -20
-24 -37 -44 -32 -13 3 -17 1 -12 -6 5 -8 1 -10 -9 -5 -10 3 -21 0 -26 -8 -6
-11 -9 -8 -9 9 0 12 3 21 8 21 26 -4 34 3 30 26 -4 18 -1 25 11 26 13 1 13 2
-1 6 -23 6 -23 29 -1 42 10 5 15 13 11 17 -4 4 -14 1 -23 -6 -8 -7 -22 -10
-30 -6 -8 3 -15 4 -15 2 0 -3 -3 -13 -6 -23 -4 -14 -4 -15 4 -4 10 14 32 7 32
-10 0 -6 -4 -7 -10 -4 -5 3 -10 2 -10 -4 0 -5 5 -13 10 -16 6 -3 10 -14 9 -23
0 -14 -2 -14 -6 -2 -4 8 -13 21 -21 29 -13 13 -14 9 -8 -30 4 -32 3 -39 -4
-24 -8 17 -9 14 -7 -14 1 -21 -3 -36 -11 -38 -9 -4 -11 2 -6 21 5 20 1 31 -13
44 -23 21 -37 52 -22 52 6 0 13 -9 16 -20 7 -27 28 -20 30 11 1 15 0 17 -3 6
-3 -9 -10 -15 -15 -12 -5 4 -5 14 1 26 8 15 7 23 -5 35 -18 19 -81 31 -70 15
3 -6 11 -9 16 -6 5 4 9 -10 9 -29 0 -20 -4 -36 -9 -36 -10 0 -41 56 -41 73 0
6 -14 39 -30 74 -17 35 -27 69 -24 76 4 7 4 9 -1 5 -4 -4 -25 26 -47 68 -182
353 -479 672 -838 899 -302 190 -555 289 -915 356 -103 20 -154 23 -360 23
-256 0 -317 -6 -520 -54 -378 -89 -695 -243 -1005 -488 -112 -88 -294 -270
-365 -362 -27 -36 -52 -67 -55 -70 -4 -3 -28 -36 -54 -75 -27 -38 -53 -69 -58
-67 -5 1 -7 -2 -4 -6 5 -9 -6 -34 -62 -137 -15 -28 -42 -84 -61 -125 -19 -41
-39 -81 -45 -89 -6 -7 -11 -19 -12 -25 0 -6 -2 -20 -3 -31 -1 -11 -5 -16 -9
-10 -12 17 -119 22 -135 6 -14 -14 7 -15 33 -1 11 6 21 6 25 1 3 -5 -4 -12
-15 -16 -22 -7 -24 -16 -11 -63 6 -20 6 -32 0 -32 -5 0 -9 5 -9 11 0 8 -5 8
-15 -1 -12 -10 -15 -10 -15 2 0 8 6 20 13 27 10 11 9 13 -3 9 -8 -3 -18 -21
-21 -40 -5 -32 -4 -35 11 -26 19 12 70 3 70 -12 0 -14 -27 -13 -32 1 -3 8 -10
8 -27 -2 -19 -12 -24 -12 -34 2 -7 9 -27 20 -45 23 -17 4 -32 12 -32 18 0 6 7
8 15 4 9 -3 15 0 15 10 0 8 -4 12 -10 9 -14 -8 -13 2 5 63 9 29 20 52 26 52 6
0 7 4 4 10 -18 29 191 460 215 445 6 -3 7 1 4 9 -3 9 6 32 23 53 15 21 49 70
75 108 206 305 554 600 939 795 326 165 604 243 1014 284 65 7 363 -3 455 -14z
m1660 -370 c0 -5 -4 -10 -10 -10 -5 0 -10 5 -10 10 0 6 5 10 10 10 6 0 10 -4
10 -10z m-1735 -20 c496 -56 956 -275 1319 -629 139 -137 255 -276 204 -245
-9 5 -9 2 1 -9 16 -20 25 -23 15 -4 -4 6 2 3 13 -8 32 -34 74 -111 68 -128 -4
-8 -24 -18 -46 -21 -28 -4 -42 -13 -48 -28 -6 -17 -9 -18 -14 -5 -7 19 32 47
67 47 13 0 26 7 29 15 7 17 -9 30 -18 15 -8 -13 -57 -2 -71 16 -13 16 -24 18
-24 4 0 -6 11 -16 25 -22 32 -15 32 -32 0 -24 -19 5 -23 3 -19 -9 4 -8 1 -21
-5 -29 -6 -7 -7 -17 -3 -21 4 -5 1 -5 -6 -1 -9 5 -11 18 -8 35 4 16 3 21 -2
13 -7 -10 -29 11 -83 75 -113 135 -166 188 -269 275 -296 250 -663 423 -1021
483 -155 26 -424 31 -570 11 -379 -54 -723 -197 -1014 -423 -142 -111 -300
-267 -368 -363 -15 -21 -19 -23 -28 -10 -8 12 -9 11 -4 -6 7 -26 -21 -55 -31
-31 -3 9 -13 13 -27 10 -19 -4 -18 -2 8 21 l30 26 -35 -2 c-19 -1 -41 1 -48 6
-7 4 -12 1 -12 -9 0 -13 7 -15 38 -10 l37 7 -29 -16 c-39 -22 -56 -20 -57 7
-1 21 -1 21 -9 -3 -8 -25 -8 -25 -9 -2 -1 21 -3 22 -16 8 -8 -8 -15 -19 -15
-25 0 -6 -5 -11 -11 -11 -6 0 0 19 14 43 15 23 31 41 36 40 6 -2 8 3 5 11 -3
8 3 22 14 32 10 11 23 26 28 35 17 31 129 154 229 253 323 318 789 541 1255
600 128 17 363 19 485 6z m1735 -15 c-7 -8 -17 -12 -22 -9 -6 4 -5 10 3 15 22
14 33 10 19 -6z m30 -5 c0 -5 -5 -10 -11 -10 -5 0 -7 5 -4 10 3 6 8 10 11 10
2 0 4 -4 4 -10z m39 1 c9 -6 10 -11 2 -15 -6 -4 -11 -2 -11 5 0 6 -9 1 -20
-12 -22 -27 -27 -19 -8 11 14 22 17 23 37 11z m-59 -31 c0 -5 -2 -10 -4 -10
-3 0 -8 5 -11 10 -3 6 -1 10 4 10 6 0 11 -4 11 -10z m90 0 c0 -5 -4 -10 -10
-10 -5 0 -10 5 -10 10 0 6 5 10 10 10 6 0 10 -4 10 -10z m-100 -36 c0 -8 -19
-13 -24 -6 -3 5 1 9 9 9 8 0 15 -2 15 -3z m-85 -14 c3 -6 -1 -7 -9 -4 -18 7
-21 14 -7 14 6 0 13 -4 16 -10z m88 -25 c-3 -9 -8 -14 -10 -11 -3 3 -2 9 2 15
9 16 15 13 8 -4z m-4383 -341 c0 -8 4 -13 8 -10 4 2 9 -6 10 -20 1 -13 -3 -24
-9 -24 -5 0 -7 4 -4 10 3 5 -3 19 -14 31 -11 12 -18 26 -15 31 8 12 24 0 24
-18z m170 -38 c0 -9 -30 -14 -35 -6 -4 6 3 10 14 10 12 0 21 -2 21 -4z m-195
-26 c3 -5 1 -10 -4 -10 -6 0 -11 5 -11 10 0 6 2 10 4 10 3 0 8 -4 11 -10z m42
-16 c-3 -3 -12 -4 -19 -1 -8 3 -5 6 6 6 11 1 17 -2 13 -5z m103 -8 c0 -3 -4
-8 -10 -11 -5 -3 -10 -1 -10 4 0 6 5 11 10 11 6 0 10 -2 10 -4z m-155 -34 c-3
-3 -11 0 -18 7 -9 10 -8 11 6 5 10 -3 15 -9 12 -12z m5 -26 c0 -2 -7 -9 -15
-16 -13 -11 -14 -10 -9 4 5 14 24 23 24 12z m637 -418 c-3 -8 -6 -5 -6 6 -1
11 2 17 5 13 3 -3 4 -12 1 -19z m128 -15 c0 -7 -4 -14 -10 -15 -5 -1 -16 -8
-24 -15 -15 -16 -33 -13 -39 7 -3 8 1 11 10 8 7 -3 23 1 33 9 19 15 19 15 -4
8 -17 -5 -21 -4 -16 5 9 15 50 9 50 -7z m3505 -13 c0 -5 -4 -10 -10 -10 -5 0
-10 5 -10 10 0 6 5 10 10 10 6 0 10 -4 10 -10z m-3640 -47 c0 -1 -8 -1 -18 0
-10 0 -19 9 -19 18 -2 16 0 17 18 1 10 -9 19 -17 19 -19z m30 27 c0 -5 -4 -10
-10 -10 -5 0 -10 5 -10 10 0 6 5 10 10 10 6 0 10 -4 10 -10z m3590 -23 c0 -5
-4 -5 -10 -2 -5 3 -10 14 -10 23 0 15 2 15 10 2 5 -8 10 -19 10 -23z m-3559
-20 c-10 -9 -11 -8 -5 6 3 10 9 15 12 12 3 -3 0 -11 -7 -18z m3569 -27 c0 -5
-4 -10 -10 -10 -5 0 -10 5 -10 10 0 6 5 10 10 10 6 0 10 -4 10 -10z m1337
-162 c-3 -8 -6 -5 -6 6 -1 11 2 17 5 13 3 -3 4 -12 1 -19z m-829 -42 c-2 -10
-8 -13 -16 -7 -7 4 -10 15 -6 25 8 21 28 6 22 -18z m-5648 14 c0 -5 -4 -10
-10 -10 -5 0 -10 5 -10 10 0 6 5 10 10 10 6 0 10 -4 10 -10z m1071 -20 c13
-10 19 -19 13 -20 -15 0 -36 -49 -29 -69 4 -15 0 -17 -24 -13 -20 3 -28 9 -24
17 2 8 10 12 18 9 13 -5 30 25 19 35 -4 3 -9 0 -11 -7 -3 -6 -9 -9 -14 -6 -6
3 -5 11 2 20 6 8 9 18 5 21 -4 4 -11 1 -16 -7 -5 -8 -12 -11 -16 -7 -6 6 34
46 47 47 4 0 17 -9 30 -20z m5585 -28 c-18 -16 -19 -16 -12 1 3 10 6 24 6 30
0 8 4 7 12 -1 10 -9 8 -16 -6 -30z m-6495 4 c-13 -14 -20 -30 -16 -36 4 -6 2
-17 -5 -25 -10 -12 -14 -11 -31 3 -10 9 -19 21 -19 26 0 5 9 1 20 -9 24 -21
39 -13 19 11 -8 10 -23 14 -41 12 -22 -4 -25 -2 -17 9 6 7 21 10 33 7 11 -2
30 2 41 10 31 24 41 19 16 -8z m6366 9 c0 -8 -4 -12 -9 -9 -4 3 -8 9 -8 15 0
5 4 9 8 9 5 0 9 -7 9 -15z m-6531 -44 c4 -11 7 -12 16 -3 14 14 28 16 28 5 0
-5 -11 -13 -25 -20 -21 -9 -27 -8 -35 6 -5 10 -6 29 -2 42 6 21 7 22 10 4 2
-11 5 -26 8 -34z m232 8 c-6 -4 -7 -12 -3 -19 5 -9 4 -11 -3 -6 -7 4 -12 16
-12 27 0 10 -4 19 -10 19 -5 0 -10 5 -10 10 0 6 11 3 24 -7 14 -10 20 -21 14
-24z m5392 11 c0 -5 -4 -10 -10 -10 -5 0 -10 5 -10 10 0 6 5 10 10 10 6 0 10
-4 10 -10z m1053 -12 c-9 -15 -43 -20 -43 -7 0 5 9 9 20 9 11 0 20 5 20 12 0
6 3 9 6 5 3 -3 2 -11 -3 -19z m-160 -1 c4 3 7 1 7 -5 0 -7 -11 -12 -25 -12
-24 0 -32 10 -18 23 3 4 11 2 18 -3 7 -5 15 -7 18 -3z m41 -41 c-3 -9 -11 -16
-16 -16 -6 0 -4 7 3 17 11 13 11 17 2 20 -7 3 -13 12 -13 21 0 13 3 12 15 -5
8 -12 12 -28 9 -37z m-6482 19 c0 -5 -14 -16 -32 -23 -18 -7 -29 -8 -25 -2 3
5 13 10 21 10 8 0 14 7 14 16 0 16 21 16 22 -1z m6398 -3 c0 -4 -9 -8 -20 -9
-16 -1 -17 1 -7 12 12 13 27 11 27 -3z m-835 2 c12 -5 15 -16 11 -53 -3 -25
-3 -38 0 -28 5 14 24 25 24 13 0 -2 2 -11 5 -19 4 -9 -1 -13 -17 -12 -17 1
-25 11 -35 44 -11 39 -11 42 5 37 14 -5 13 -3 -2 9 -21 16 -18 19 9 9z m952
-16 c-3 -8 -6 -5 -6 6 -1 11 2 17 5 13 3 -3 4 -12 1 -19z m-6607 -19 c0 -5 -4
-9 -8 -9 -5 0 -9 7 -9 15 0 8 4 12 9 9 4 -3 8 -9 8 -15z m6694 6 c-4 -8 -11
-12 -16 -9 -6 4 -5 10 3 15 19 12 19 11 13 -6z m-5801 -10 c4 -8 21 -18 39
-24 l33 -9 -32 -1 c-17 -1 -33 4 -35 11 -7 21 -37 0 -33 -23 2 -12 0 -31 -6
-41 -7 -14 -7 -18 -1 -14 6 3 13 2 17 -4 3 -5 2 -10 -4 -10 -5 0 -9 -14 -9
-30 1 -17 -3 -34 -7 -38 -4 -4 -5 3 -2 15 3 13 1 26 -4 29 -5 3 -9 -4 -9 -16
0 -12 -4 -19 -9 -16 -12 8 6 98 22 108 8 5 8 8 0 8 -8 0 -8 9 0 35 11 36 31
46 40 20z m5617 5 c0 -5 -2 -10 -4 -10 -3 0 -8 5 -11 10 -3 6 -1 10 4 10 6 0
11 -4 11 -10z m78 -7 c-1 -10 1 -24 6 -31 7 -11 4 -11 -13 0 -12 7 -17 14 -11
16 5 2 10 10 10 18 0 8 3 14 6 14 3 0 4 -8 2 -17z m-5518 -28 c0 -5 -5 -3 -10
5 -5 8 -10 20 -10 25 0 6 5 3 10 -5 5 -8 10 -19 10 -25z m4721 25 c5 0 9 -4 9
-10 0 -14 -13 -12 -36 6 -17 14 -17 15 -1 10 10 -3 23 -6 28 -6z m-5624 -22
c-3 -8 -6 -5 -6 6 -1 11 2 17 5 13 3 -3 4 -12 1 -19z m2098 7 c75 -20 167 -62
231 -107 l49 -35 40 30 c232 172 548 146 755 -62 75 -75 129 -172 153 -271 17
-70 27 -546 20 -947 l-4 -203 -179 0 -179 0 -3 508 -3 507 -24 52 c-13 29 -41
68 -62 88 -47 42 -134 70 -192 61 -51 -8 -171 -71 -261 -135 l-69 -50 -41 33
c-116 94 -301 182 -414 198 l-23 3 -1 -620 c0 -341 -3 -626 -5 -632 -4 -10
-50 -13 -183 -13 l-178 0 -4 78 c-2 42 -5 404 -6 805 l-4 727 264 0 c205 0
277 -3 323 -15z m2815 -160 l0 -175 -95 0 -95 0 0 -630 0 -630 -185 0 -185 0
0 630 0 630 -390 0 -390 0 0 175 0 175 670 0 670 0 0 -175z m770 165 c0 -5 -5
-10 -11 -10 -5 0 -7 5 -4 10 3 6 8 10 11 10 2 0 4 -4 4 -10z m805 0 c-3 -5
-11 -10 -16 -10 -6 0 -7 5 -4 10 3 6 11 10 16 10 6 0 7 -4 4 -10z m-6568 -15
c0 -8 -4 -12 -9 -9 -4 3 -8 9 -8 15 0 5 4 9 8 9 5 0 9 -7 9 -15z m918 5 c-3
-5 -11 -10 -16 -10 -6 0 -7 5 -4 10 3 6 11 10 16 10 6 0 7 -4 4 -10z m5535 0
c0 -5 -2 -10 -4 -10 -3 0 -8 5 -11 10 -3 6 -1 10 4 10 6 0 11 -4 11 -10z
m-5494 -16 c-3 -9 -6 -22 -6 -30 0 -8 -6 -11 -15 -8 -8 4 -15 13 -15 21 0 8 4
11 10 8 6 -3 7 1 4 9 -4 11 0 16 11 16 12 0 15 -5 11 -16z m4679 -28 c-6 -39
-4 -46 21 -69 25 -23 26 -26 6 -20 -12 3 -24 14 -28 25 -5 16 -8 17 -14 7 -8
-12 -3 60 6 89 9 29 15 8 9 -32z m104 13 c-16 -10 -23 -4 -14 10 3 6 11 8 17
5 6 -4 5 -9 -3 -15z m-4831 -10 c4 -11 2 -12 -9 -1 -11 10 -16 8 -26 -10 -12
-21 -13 -21 -11 -3 5 35 37 45 46 14z m-1008 -24 c0 -5 -5 -3 -10 5 -5 8 -10
20 -10 25 0 6 5 3 10 -5 5 -8 10 -19 10 -25z m75 25 c3 -5 1 -10 -4 -10 -6 0
-11 5 -11 10 0 6 2 10 4 10 3 0 8 -4 11 -10z m849 -11 c-3 -5 -10 -7 -15 -3
-5 3 -7 10 -3 15 3 5 10 7 15 3 5 -3 7 -10 3 -15z m4946 11 c0 -5 -5 -10 -11
-10 -5 0 -7 5 -4 10 3 6 8 10 11 10 2 0 4 -4 4 -10z m-55 -10 c3 -5 1 -10 -4
-10 -6 0 -11 5 -11 10 0 6 2 10 4 10 3 0 8 -4 11 -10z m-106 -75 c5 2 6 -7 3
-20 -2 -14 -6 -25 -7 -25 -5 0 -35 106 -34 117 0 4 7 -11 16 -35 8 -23 18 -40
22 -37z m50 59 c1 15 4 16 16 6 16 -13 21 -35 6 -25 -5 3 -13 0 -17 -6 -8 -13
-24 8 -23 31 0 10 3 8 9 -5 8 -19 9 -19 9 -1z m751 -9 c-7 -9 -15 -13 -19 -10
-3 3 1 10 9 15 21 14 24 12 10 -5z m-5475 -5 c3 -5 -3 -10 -14 -10 -11 0 -23
5 -26 10 -3 6 3 10 14 10 11 0 23 -4 26 -10z m-1050 -10 c3 -5 1 -10 -4 -10
-6 0 -11 5 -11 10 0 6 2 10 4 10 3 0 8 -4 11 -10z m972 -27 c-3 -3 -11 -2 -17
2 -9 6 -9 10 1 16 14 8 27 -7 16 -18z m33 16 c0 -5 4 -8 9 -4 5 3 12 1 16 -5
7 -11 -5 -13 -29 -4 -18 7 -22 24 -6 24 6 0 10 -5 10 -11z m4862 -17 c-3 -10
-1 -13 6 -8 7 4 12 1 12 -8 0 -27 -16 -25 -27 3 -8 21 -7 28 3 28 7 0 10 -7 6
-15z m-4922 -7 c0 -12 -19 -12 -23 0 -4 9 -1 12 9 8 7 -3 14 -7 14 -8z m50 -4
c0 -5 -7 -11 -15 -15 -15 -5 -20 5 -8 17 9 10 23 9 23 -2z m4850 -12 c0 -11
-4 -17 -10 -14 -5 3 -10 1 -10 -6 0 -7 -3 -10 -6 -7 -6 6 13 48 21 48 3 0 5
-9 5 -21z m-80 -19 c0 -5 -2 -10 -4 -10 -3 0 -8 5 -11 10 -3 6 -1 10 4 10 6 0
11 -4 11 -10z m152 -40 c-3 -3 -7 1 -9 8 -3 6 -8 10 -13 7 -4 -3 -6 4 -3 16 5
20 6 20 18 -3 6 -13 10 -25 7 -28z m-5052 36 c0 -3 -4 -8 -10 -11 -5 -3 -10
-1 -10 4 0 6 5 11 10 11 6 0 10 -2 10 -4z m58 -8 c-2 -5 -8 -9 -13 -9 -5 0
-11 4 -13 9 -1 5 4 9 13 9 9 0 14 -4 13 -9z m52 -2 c0 -2 -7 -7 -16 -10 -8 -3
-12 -2 -9 4 6 10 25 14 25 6z m4770 -10 c0 -2 -7 -7 -16 -10 -8 -3 -12 -2 -9
4 6 10 25 14 25 6z m-4857 -21 c-3 -9 -8 -14 -10 -11 -3 3 -2 9 2 15 9 16 15
13 8 -4z m4924 -27 c-3 -8 -6 -5 -6 6 -1 11 2 17 5 13 3 -3 4 -12 1 -19z
m-4937 -8 c0 -5 -4 -10 -10 -10 -5 0 -10 5 -10 10 0 6 5 10 10 10 6 0 10 -4
10 -10z m145 -30 c3 -5 1 -10 -4 -10 -6 0 -11 5 -11 10 0 6 2 10 4 10 3 0 8
-4 11 -10z m4820 -11 c11 -17 -1 -21 -15 -4 -8 9 -8 15 -2 15 6 0 14 -5 17
-11z m-4829 -37 c-4 -3 -11 0 -16 8 -15 24 -11 33 6 15 9 -9 13 -19 10 -23z
m4794 28 c0 -5 -4 -10 -10 -10 -5 0 -10 5 -10 10 0 6 5 10 10 10 6 0 10 -4 10
-10z m-4797 -57 c-7 -2 -19 -2 -25 0 -7 3 -2 5 12 5 14 0 19 -2 13 -5z"/>
<path d="M8428 5993 c6 -2 18 -2 25 0 6 3 1 5 -13 5 -14 0 -19 -2 -12 -5z"/>
<path d="M8388 5973 c7 -3 16 -2 19 1 4 3 -2 6 -13 5 -11 0 -14 -3 -6 -6z"/>
<path d="M8510 5970 c0 -5 5 -10 10 -10 6 0 10 5 10 10 0 6 -4 10 -10 10 -5 0
-10 -4 -10 -10z"/>
<path d="M8504 5935 c-10 -8 -14 -14 -9 -15 15 0 40 18 34 24 -3 3 -14 -1 -25
-9z"/>
<path d="M8360 5930 c0 -13 11 -13 30 0 12 8 11 10 -7 10 -13 0 -23 -4 -23
-10z"/>
<path d="M8458 5933 c7 -3 16 -2 19 1 4 3 -2 6 -13 5 -11 0 -14 -3 -6 -6z"/>
<path d="M2105 5919 c-4 -6 -5 -12 -2 -15 2 -3 7 2 10 11 7 17 1 20 -8 4z"/>
<path d="M8422 5925 c4 -4 0 -14 -10 -21 -9 -7 -15 -14 -12 -17 3 -2 13 4 23
13 15 14 16 20 5 26 -7 4 -10 4 -6 -1z"/>
<path d="M2040 5915 c0 -5 5 -17 10 -25 5 -8 10 -10 10 -5 0 6 -5 17 -10 25
-5 8 -10 11 -10 5z"/>
<path d="M2126 5911 c-4 -5 -3 -17 1 -27 5 -12 3 -15 -6 -9 -10 6 -11 3 -2
-14 7 -11 16 -21 21 -21 4 0 17 -3 27 -7 15 -6 16 -4 5 9 -7 8 -10 24 -6 34 5
18 5 18 -6 2 -15 -25 -25 -22 -26 7 -2 22 1 24 30 19 24 -4 27 -3 16 5 -18 13
-47 14 -54 2z"/>
<path d="M8526 5912 c13 -9 44 -54 44 -65 0 -4 -6 -5 -12 -1 -7 4 -10 4 -6 -1
4 -4 1 -14 -7 -22 -8 -8 -15 -22 -15 -31 0 -12 3 -13 12 -4 7 7 17 8 30 1 24
-13 25 6 1 20 -10 5 -15 13 -11 17 4 4 14 2 21 -4 14 -12 27 -7 27 10 0 5 -5
6 -10 3 -6 -3 -19 14 -30 39 -13 30 -25 46 -37 46 -11 0 -14 -3 -7 -8z"/>
<path d="M1981 5894 c0 -11 3 -14 6 -6 3 7 2 16 -1 19 -3 4 -6 -2 -5 -13z"/>
<path d="M2075 5899 c-4 -6 -5 -12 -2 -15 2 -3 7 2 10 11 7 17 1 20 -8 4z"/>
<path d="M8370 5884 c0 -8 5 -12 10 -9 6 3 10 10 10 16 0 5 -4 9 -10 9 -5 0
-10 -7 -10 -16z"/>
<path d="M8355 5850 c3 -5 8 -10 11 -10 2 0 4 5 4 10 0 6 -5 10 -11 10 -5 0
-7 -4 -4 -10z"/>
<path d="M8373 5841 c-10 -16 -9 -18 10 -17 24 1 39 15 31 28 -9 14 -29 9 -41
-11z"/>
<path d="M1999 5808 c-1 -7 0 -17 1 -23 1 -5 3 -15 3 -21 0 -12 37 -6 37 6 0
4 -10 10 -22 14 -22 5 -22 6 -3 20 18 14 18 15 3 16 -10 0 -19 -6 -19 -12z"/>
<path d="M8380 5794 c0 -8 5 -12 10 -9 6 4 8 11 5 16 -9 14 -15 11 -15 -7z"/>
<path d="M7114 7238 c-4 -7 -3 -8 5 -4 6 4 18 2 26 -4 9 -7 15 -8 15 -2 0 5
-7 13 -16 16 -21 8 -22 8 -30 -6z"/>
<path d="M7148 7193 c7 -3 16 -2 19 1 4 3 -2 6 -13 5 -11 0 -14 -3 -6 -6z"/>
<path d="M7015 7170 c-4 -6 -11 -7 -17 -4 -7 4 -8 2 -4 -4 7 -12 36 -5 36 9 0
12 -7 11 -15 -1z"/>
<path d="M7050 7177 c0 -4 7 -19 16 -33 13 -19 20 -22 30 -13 8 6 14 17 14 23
0 6 -5 4 -10 -4 -9 -13 -13 -11 -30 10 -11 14 -20 21 -20 17z"/>
<path d="M7140 7168 c0 -4 7 -8 15 -8 8 0 15 4 15 8 0 5 -7 9 -15 9 -8 0 -15
-4 -15 -9z"/>
<path d="M7041 7134 c0 -11 3 -14 6 -6 3 7 2 16 -1 19 -3 4 -6 -2 -5 -13z"/>
<path d="M3310 6930 c0 -5 5 -10 11 -10 5 0 7 5 4 10 -3 6 -8 10 -11 10 -2 0
-4 -4 -4 -10z"/>
<path d="M3167 6912 c-3 -4 1 -13 9 -19 7 -7 15 -9 17 -5 3 4 -1 13 -9 19 -7
7 -15 9 -17 5z"/>
<path d="M3078 6878 c5 -5 16 -8 23 -6 8 3 3 7 -10 11 -17 4 -21 3 -13 -5z"/>
<path d="M3035 6851 c-3 -5 -2 -12 3 -15 5 -3 9 1 9 9 0 17 -3 19 -12 6z"/>
<path d="M3077 6844 c-3 -3 -3 -12 0 -20 4 -10 8 -11 18 -1 7 7 11 15 8 20 -5
9 -17 9 -26 1z"/>
<path d="M2974 6828 c-3 -4 -3 -12 1 -17 3 -5 -3 -11 -12 -13 -15 -3 -16 -5
-2 -10 8 -3 26 1 40 9 13 8 16 12 7 9 -10 -3 -18 -3 -18 1 0 3 8 12 18 19 16
12 15 13 -6 11 -13 -1 -26 -5 -28 -9z"/>
<path d="M3041 6804 c6 -7 16 -11 21 -8 11 7 3 17 -18 20 -12 2 -13 -1 -3 -12z"/>
<path d="M3191 6811 c-8 -6 -9 -11 -3 -15 6 -3 14 -1 17 5 9 14 2 20 -14 10z"/>
<path d="M3075 6790 c-3 -5 1 -10 9 -10 9 0 16 5 16 10 0 6 -4 10 -9 10 -6 0
-13 -4 -16 -10z"/>
<path d="M3007 6761 c-18 -36 -15 -39 12 -12 11 11 15 24 11 31 -5 8 -13 2
-23 -19z"/>
<path d="M3138 6785 c-3 -6 0 -16 8 -23 11 -10 15 -8 25 10 11 20 10 22 -3 10
-13 -10 -17 -10 -20 0 -3 7 -7 8 -10 3z"/>
<path d="M3068 6753 c12 -2 30 -2 40 0 9 3 -1 5 -23 4 -22 0 -30 -2 -17 -4z"/>
<path d="M2930 6720 c-9 -6 -10 -10 -3 -10 6 0 15 5 18 10 8 12 4 12 -15 0z"/>
<path d="M2990 6680 c0 -5 5 -10 10 -10 6 0 10 5 10 10 0 6 -4 10 -10 10 -5 0
-10 -4 -10 -10z"/>
<path d="M7395 6130 c-3 -6 1 -7 9 -4 18 7 21 14 7 14 -6 0 -13 -4 -16 -10z"/>
<path d="M7607 6079 c4 -13 8 -18 11 -10 2 7 -1 18 -6 23 -8 8 -9 4 -5 -13z"/>
<path d="M3095 6070 c3 -5 8 -10 11 -10 2 0 4 5 4 10 0 6 -5 10 -11 10 -5 0
-7 -4 -4 -10z"/>
<path d="M3038 6028 c6 -6 18 -8 28 -6 14 3 12 5 -9 10 -19 3 -25 2 -19 -4z"/>
<path d="M3000 6020 c-8 -5 -12 -12 -9 -15 4 -3 12 1 19 10 14 17 11 19 -10 5z"/>
<path d="M2960 6011 c0 -6 4 -13 10 -16 6 -3 7 1 4 9 -7 18 -14 21 -14 7z"/>
<path d="M7491 5974 c0 -11 3 -14 6 -6 3 7 2 16 -1 19 -3 4 -6 -2 -5 -13z"/>
<path d="M7541 5964 c0 -11 3 -14 6 -6 3 7 2 16 -1 19 -3 4 -6 -2 -5 -13z"/>
<path d="M7630 5965 c-14 -16 -3 -20 19 -6 8 5 9 11 3 15 -5 3 -15 -1 -22 -9z"/>
<path d="M3035 5950 c3 -5 10 -10 16 -10 5 0 9 5 9 10 0 6 -7 10 -16 10 -8 0
-12 -4 -9 -10z"/>
<path d="M7536 5925 c-3 -8 -1 -15 4 -15 6 0 10 7 10 15 0 8 -2 15 -4 15 -2 0
-6 -7 -10 -15z"/>
<path d="M7502 5900 c0 -14 2 -19 5 -12 2 6 2 18 0 25 -3 6 -5 1 -5 -13z"/>
<path d="M7640 5910 c0 -5 5 -10 10 -10 6 0 10 5 10 10 0 6 -4 10 -10 10 -5 0
-10 -4 -10 -10z"/>
<path d="M7570 5900 c0 -5 5 -10 10 -10 6 0 10 5 10 10 0 6 -4 10 -10 10 -5 0
-10 -4 -10 -10z"/>
<path d="M2968 5893 c7 -3 16 -2 19 1 4 3 -2 6 -13 5 -11 0 -14 -3 -6 -6z"/>
<path d="M3065 5889 c-11 -17 1 -21 15 -4 8 9 8 15 2 15 -6 0 -14 -5 -17 -11z"/>
<path d="M7593 5885 c-7 -8 -9 -16 -5 -19 4 -3 13 4 20 15 14 22 3 25 -15 4z"/>
<path d="M7616 5873 c-3 -3 1 -15 11 -25 10 -12 12 -18 4 -18 -7 0 -9 -4 -6
-10 3 -5 11 -10 16 -10 6 0 7 5 3 12 -5 8 -2 9 9 5 10 -3 17 -2 17 3 0 6 -7
10 -15 10 -8 0 -15 6 -15 14 0 17 -14 28 -24 19z"/>
<path d="M7660 5866 c0 -8 7 -17 16 -20 13 -5 14 -4 6 7 -7 8 -9 17 -5 20 3 4
1 7 -5 7 -7 0 -12 -6 -12 -14z"/>
<path d="M7550 5861 c0 -5 5 -13 10 -16 6 -3 10 -2 10 4 0 5 -4 13 -10 16 -5
3 -10 2 -10 -4z"/>
<path d="M2996 5851 c-3 -4 8 -8 23 -7 16 1 27 4 24 9 -6 10 -41 9 -47 -2z"/>
<path d="M2995 5820 c3 -5 8 -10 11 -10 2 0 4 5 4 10 0 6 -5 10 -11 10 -5 0
-7 -4 -4 -10z"/>
<path d="M3035 5820 c-3 -5 -1 -10 4 -10 6 0 11 5 11 10 0 6 -2 10 -4 10 -3 0
-8 -4 -11 -10z"/>
<path d="M7680 5819 c0 -5 5 -7 10 -4 6 3 10 8 10 11 0 2 -4 4 -10 4 -5 0 -10
-5 -10 -11z"/>
<path d="M2861 5811 c-8 -5 -9 -11 -3 -15 5 -3 12 1 16 9 6 17 6 18 -13 6z"/>
<path d="M2840 5761 c0 -25 6 -27 13 -6 4 8 2 17 -3 20 -6 4 -10 -3 -10 -14z"/>
<path d="M2876 5730 c-18 -47 -19 -53 -7 -46 5 4 12 0 14 -6 3 -7 6 4 6 25 1
31 5 40 22 44 16 4 17 8 7 14 -21 14 -25 11 -42 -31z"/>
<path d="M3555 6250 c3 -6 1 -10 -6 -10 -7 0 -10 -3 -6 -6 3 -3 13 -2 22 4 16
8 16 9 1 15 -10 4 -15 3 -11 -3z"/>
<path d="M3517 6209 c7 -7 15 -10 18 -7 3 3 -2 9 -12 12 -14 6 -15 5 -6 -5z"/>
<path d="M7023 6203 c-7 -2 -13 -8 -13 -13 0 -12 33 -5 38 8 4 12 -4 14 -25 5z"/>
<path d="M7045 6170 c-10 -16 24 -24 48 -11 20 10 19 11 -11 6 -20 -3 -31 -1
-27 5 3 6 4 10 1 10 -3 0 -8 -5 -11 -10z"/>
<path d="M6966 6125 c4 -8 8 -15 10 -15 2 0 4 7 4 15 0 8 -4 15 -10 15 -5 0
-7 -7 -4 -15z"/>
<path d="M2995 5760 c3 -5 10 -10 16 -10 5 0 9 5 9 10 0 6 -7 10 -16 10 -8 0
-12 -4 -9 -10z"/>
</g>
</svg>
